<svg width="39" height="39" viewBox="0 0 39 39" fill="none" xmlns="http://www.w3.org/2000/svg">
<path d="M13.5986 15.3947H4.61835C4.61835 24.1184 13.0855 23.6052 13.0855 23.6052C13.0855 23.6052 21.8091 24.0349 21.8091 15.3947C21.8091 12.1767 20.7853 9.95055 19.4019 8.4671M13.5986 15.3947V5.90131C15.1518 5.85277 17.5865 6.52044 19.4019 8.4671M13.5986 15.3947L19.4019 8.4671" stroke="#0063DD" stroke-width="1.81395"/>
<path d="M7.44073 25.9145V36.6908H37.4605V7.44078M37.4605 7.44078L30.7894 1.02631M37.4605 7.44078H30.7894V1.02631M30.7894 1.02631H7.44073V2.43749V4.10525" stroke="#0063DD" stroke-width="1.81395" stroke-linecap="round"/>
<path d="M25.1447 11.0329H33.8683M25.1447 14.625H33.8683M25.1447 18.2171H33.8683" stroke="#0063DD" stroke-width="1.81395" stroke-linecap="round"/>
<path d="M11.0329 3.84875V12.829H1.53949C1.53952 8.21053 4.3618 6.1579 4.3618 6.1579C4.3618 6.1579 6.92758 3.84875 11.0329 3.84875Z" stroke="#0063DD" stroke-width="1.81395"/>
<line x1="14.2467" y1="32.7519" x2="19.8914" y2="26.594" stroke="#0063DD" stroke-width="1.02632"/>
<line x1="20.1032" y1="26.5625" x2="26.2611" y2="32.2072" stroke="#0063DD" stroke-width="1.02632"/>
<line x1="32.4484" y1="25.2374" x2="25.7773" y2="32.4216" stroke="#0063DD" stroke-width="1.02632"/>
<circle cx="14.3684" cy="32.3289" r="2.30921" fill="#0F7BFF"/>
<circle cx="20.0131" cy="26.6842" r="2.30921" fill="#0F7BFF"/>
<circle cx="25.6578" cy="32.3289" r="2.30921" fill="#0F7BFF"/>
<circle cx="32.3289" cy="25.1447" r="2.30921" fill="#0F7BFF"/>
</svg>
